<svg width="100" height="50" viewBox="0 0 30 30" fill="none" xmlns="http://www.w3.org/2000/svg">
<path d="M5990 4869 c-446 -25 -965 -105 -1423 -219 -639 -160 -1399 -437
-2012 -734 -312 -151 -444 -232 -774 -475 -282 -207 -453 -301 -597 -327 -21
-3 -46 -12 -54 -19 -8 -7 -84 -34 -168 -59 -302 -91 -572 -202 -752 -308 -225
-132 -274 -283 -120 -366 38 -20 55 -23 105 -19 72 6 115 24 115 48 0 14 32
33 122 76 68 32 203 97 301 145 146 72 186 88 224 88 89 0 201 -40 393 -139
102 -52 216 -110 254 -129 86 -42 277 -106 398 -134 117 -26 373 -39 409 -21
31 16 80 16 154 -2 33 -8 75 -15 94 -15 21 0 77 -21 145 -55 128 -62 191 -84
353 -120 64 -15 142 -39 174 -56 81 -40 200 -79 246 -79 21 0 63 -12 93 -26
60 -28 229 -95 385 -152 94 -34 107 -36 210 -35 170 2 170 2 350 -1 94 -2 183
-9 198 -15 16 -6 50 -11 76 -11 32 0 70 -10 113 -29 103 -47 303 -90 418 -91
25 0 68 -9 96 -19 108 -42 262 -48 523 -22 75 8 116 8 145 0 48 -13 339 -4
426 12 30 6 80 24 111 41 55 29 57 29 125 16 110 -20 506 -17 623 5 99 19 238
60 285 84 21 11 74 15 205 18 118 1 194 7 231 18 30 8 100 27 155 41 55 15
116 34 136 42 30 13 49 14 113 5 154 -22 492 -4 530 28 6 5 36 19 66 30 43 17
78 21 163 21 179 0 390 54 510 130 44 28 55 30 140 30 147 0 278 41 352 109
17 15 66 53 111 83 81 55 81 55 175 61 167 10 315 66 433 162 37 30 70 46 120
59 76 19 156 55 261 117 55 32 85 43 142 50 162 21 371 103 537 212 45 29 134
86 199 126 210 129 373 263 437 356 21 32 27 52 28 103 1 35 -3 62 -8 62 -6 0
-10 -6 -10 -14 0 -20 -169 -101 -260 -125 -242 -65 -517 -49 -910 50 -286 72
-866 285 -900 329 -10 13 -35 23 -70 29 -61 10 -429 156 -446 177 -6 8 -21 14
-34 14 -29 0 -431 149 -448 167 -7 7 -26 13 -41 13 -16 0 -48 7 -72 16 -327
120 -856 285 -1219 380 -135 35 -269 70 -298 78 -29 8 -109 24 -178 36 -69 12
-144 28 -166 36 -22 8 -57 14 -77 14 -21 0 -109 11 -197 25 -466 73 -1004 100
-1474 74z m685 -34 c268 -11 696 -50 784 -72 l25 -6 -25 -9 c-13 -5 -63 -18
-111 -29 -319 -70 -571 -230 -1193 -759 -120 -102 -256 -215 -304 -251 -219
-168 -433 -288 -621 -350 -104 -34 -107 -34 -255 -31 -82 2 -164 7 -182 10
-30 6 -22 11 100 61 375 154 507 242 850 567 308 291 421 394 526 476 203 160
413 265 620 311 103 22 107 24 99 33 -11 11 -186 -19 -273 -48 -101 -32 -224
-96 -331 -170 -118 -81 -246 -193 -514 -448 -297 -283 -452 -415 -599 -512
-135 -89 -209 -127 -401 -201 -167 -65 -159 -64 -379 -59 -64 1 -111 6 -105
10 5 5 75 36 156 70 253 106 287 132 663 502 397 391 579 535 875 695 107 58
105 62 -10 18 -148 -58 -340 -186 -535 -358 -55 -49 -228 -218 -385 -376 -317
-319 -362 -355 -552 -434 -62 -26 -146 -62 -187 -81 -70 -33 -77 -34 -190 -33
-64 0 -134 3 -155 7 l-40 7 60 19 c97 30 257 111 376 192 197 133 381 295 825
727 207 200 344 316 425 360 32 17 32 17 8 0 -88 -64 -170 -135 -165 -144 4
-5 9 -8 13 -5 4 2 52 30 107 63 145 87 294 160 396 193 111 37 334 70 419 64
19 -2 103 -6 185 -9z m-706 -9 c-2 -2 -40 -18 -84 -35 -215 -86 -351 -191
-757 -588 -486 -476 -718 -646 -1088 -800 l-104 -43 -151 1 c-115 0 -144 3
-125 11 295 125 451 249 949 759 262 268 390 386 534 494 42 31 77 59 77 62 0
6 -138 -90 -223 -155 -140 -108 -316 -273 -511 -480 -333 -356 -531 -516 -758
-612 -143 -61 -194 -70 -398 -70 l-185 0 105 43 c217 87 290 141 594 436 313
302 655 599 823 712 103 70 221 123 318 143 205 41 538 87 805 110 85 8 161
14 169 15 8 0 12 -1 10 -3z m2076 -182 c88 -14 161 -27 164 -30 2 -2 -28 -4
-69 -4 -165 0 -425 -56 -627 -136 -158 -62 -397 -184 -566 -288 -148 -91 -266
-178 -472 -345 -191 -156 -291 -232 -375 -286 -113 -73 -316 -168 -456 -215
l-125 -41 -157 7 c-92 4 -149 10 -137 15 11 4 52 17 90 29 203 62 415 203 749
499 267 236 564 473 731 584 110 72 247 139 378 183 129 44 141 42 40 -6 -46
-21 -83 -43 -83 -48 0 -5 47 5 105 24 303 96 481 109 810 58z m-3411 -70
c-177 -111 -367 -274 -805 -691 -135 -128 -276 -256 -315 -284 -38 -28 -150
-91 -250 -140 l-180 -89 -135 0 -134 0 73 40 c185 101 262 166 662 563 339
337 423 408 582 495 78 43 67 31 -36 -39 -134 -91 -260 -219 -215 -219 6 0 64
38 129 85 232 166 342 226 536 288 192 62 200 61 88 -9z m3829 -21 c59 -15
107 -31 107 -35 0 -5 -25 -8 -56 -8 -141 0 -399 -78 -629 -190 -188 -91 -371
-203 -730 -445 -558 -376 -737 -469 -1135 -590 -56 -17 -82 -17 -324 1 l-80 6
100 33 c216 71 372 169 753 472 357 285 560 418 866 564 333 159 558 216 865
218 139 1 166 -1 263 -26z m-4433 -101 c-130 -90 -252 -205 -490 -463 -255
-275 -466 -448 -722 -588 -67 -37 -83 -42 -130 -39 l-53 3 37 17 c133 60 295
180 376 279 49 61 108 156 100 164 -2 2 -39 -38 -81 -90 -163 -197 -425 -375
-571 -387 -31 -3 -56 -3 -56 -2 0 2 30 20 68 40 224 125 405 268 537 425 194
231 316 330 608 493 151 85 463 207 377 148z m4872 -29 c84 -25 157 -50 163
-55 5 -4 -11 -8 -37 -8 -66 0 -218 -41 -331 -90 -136 -58 -267 -131 -502 -278
-292 -183 -483 -291 -720 -407 -317 -155 -584 -257 -851 -324 -107 -27 -128
-29 -214 -23 l-95 7 80 36 c44 20 159 64 255 97 199 68 330 121 330 133 0 5
-20 0 -46 -11 -25 -11 -125 -45 -222 -76 -193 -62 -306 -107 -372 -149 l-43
-27 -136 7 c-82 5 -128 11 -116 15 11 5 74 25 140 45 261 81 476 196 950 508
394 260 543 351 710 432 298 145 540 206 832 213 60 2 97 -6 225 -45z m605
-206 c2 -3 -31 -10 -74 -17 -211 -33 -391 -121 -828 -402 -298 -191 -406 -239
-935 -412 -195 -64 -398 -134 -451 -155 l-97 -39 -265 17 c-146 9 -269 19
-272 23 -3 3 16 9 42 13 71 10 265 68 400 118 299 112 692 308 1148 572 493
286 677 361 935 384 85 7 86 7 239 -46 85 -29 156 -54 158 -56z m-6077 29 c0
-2 -19 -16 -42 -31 -68 -45 -213 -191 -343 -345 -197 -234 -266 -292 -526
-443 l-144 -84 -105 -13 c-57 -6 -108 -14 -112 -16 -5 -3 -8 -3 -8 -1 0 3 46
31 101 62 168 95 284 191 532 439 265 266 335 319 518 390 112 44 129 50 129
42z m6223 -121 c37 -8 123 -32 192 -54 68 -23 132 -41 142 -42 10 0 -20 -11
-67 -25 -134 -39 -293 -124 -538 -288 -330 -221 -526 -326 -783 -419 -121 -44
-209 -65 -436 -106 -61 -12 -127 -28 -147 -37 -33 -16 -56 -16 -403 5 -202 13
-381 26 -396 30 -24 5 -3 15 130 59 87 28 268 85 403 126 399 121 514 174 937
427 376 225 554 303 745 328 97 13 147 12 221 -4z m-6800 -172 c-303 -329
-436 -444 -678 -585 -115 -67 -117 -67 -264 -93 -82 -14 -152 -25 -156 -25 -5
0 28 22 73 49 99 59 185 120 311 220 362 289 697 513 819 550 2 1 -45 -52
-105 -116z m7427 -29 c102 -43 187 -78 189 -80 2 -2 -10 -6 -25 -9 -148 -33
-291 -101 -530 -252 -260 -164 -353 -205 -789 -353 -143 -48 -285 -98 -315
-110 -51 -21 -66 -22 -195 -16 -313 13 -556 30 -542 37 8 5 91 22 185 39 93
16 208 42 254 56 218 69 494 200 713 338 77 49 196 125 265 169 233 148 416
226 600 256 2 1 88 -33 190 -75z m-7926 -195 c-245 -196 -420 -325 -568 -419
-108 -69 -140 -83 -212 -100 -115 -27 -119 -25 -44 16 88 50 156 96 360 248
96 71 211 153 255 182 87 56 365 214 378 214 4 0 -72 -63 -169 -141z m8303 34
l67 -28 -90 -6 c-119 -9 -225 -39 -354 -100 -107 -51 -290 -165 -290 -180 0
-13 -3 -14 124 57 147 81 246 125 361 159 117 35 263 39 378 11 75 -19 101
-36 53 -36 -74 0 -239 -73 -435 -192 -227 -138 -302 -167 -691 -268 -146 -38
-292 -78 -325 -90 -57 -20 -71 -21 -285 -15 -124 4 -253 10 -285 14 l-60 6
140 49 c231 80 563 205 672 253 56 24 173 85 260 135 281 160 399 214 533 244
93 20 153 17 227 -13z m551 -208 l163 -58 -73 -19 c-98 -24 -205 -77 -372
-183 -169 -106 -303 -174 -414 -209 l-83 -26 -372 1 c-205 1 -419 4 -477 8
l-105 6 60 19 c33 10 164 44 290 76 340 86 396 108 695 272 237 129 377 181
475 174 28 -2 123 -29 213 -61z m1545 -99 c-11 -20 -203 -187 -288 -251 -99
-75 -369 -239 -478 -290 -216 -102 -422 -151 -597 -142 -136 8 -196 24 -417
113 -100 40 -214 83 -254 94 -40 11 -77 24 -81 28 -5 5 90 12 214 15 123 4
282 14 353 22 85 11 231 17 420 19 213 2 314 7 380 19 186 34 312 80 421 155
63 43 111 88 102 97 -3 3 -45 -14 -94 -39 -266 -132 -462 -185 -724 -192
l-155 -5 115 36 c63 20 119 40 124 46 19 18 -4 20 -56 6 -133 -39 -591 -117
-604 -104 -7 7 308 155 387 181 62 21 203 46 258 46 11 0 12 3 4 11 -19 19
-124 22 -197 5 -38 -9 -137 -49 -220 -88 -361 -170 -357 -168 -523 -178 -82
-5 -173 -9 -203 -10 l-55 0 90 44 c50 24 169 92 265 152 185 114 302 171 411
198 88 22 95 21 255 -19 270 -68 355 -80 599 -79 251 0 313 11 460 83 90 44
99 47 88 27z m-8378 -141 c220 -8 443 -17 495 -20 52 -3 190 -10 305 -15 526
-26 1155 -65 2597 -162 258 -17 217 -32 -66 -24 -127 4 -391 11 -586 16 -575
15 -754 24 -1440 71 -1007 68 -1252 79 -1775 79 -733 0 -1345 -54 -1930 -172
-246 -49 -570 -139 -680 -188 -22 -10 -105 -46 -185 -81 -80 -35 -310 -145
-513 -246 -255 -127 -377 -183 -401 -183 -44 0 -97 36 -119 83 -44 89 37 179
268 294 98 49 212 94 465 185 562 201 1187 335 1766 378 167 12 1320 3 1799
-15z m-587 -130 c171 -83 279 -161 433 -315 212 -212 326 -396 474 -766 74
-184 101 -236 162 -311 19 -24 32 -43 28 -43 -24 0 -164 81 -228 131 -101 81
-184 183 -354 435 -226 334 -452 600 -620 727 -86 65 -196 123 -273 142 -158
40 -158 39 -20 45 297 13 271 16 398 -45z m389 27 c266 -84 474 -353 558 -724
43 -186 49 -208 87 -279 30 -57 103 -138 114 -127 3 4 -13 35 -37 70 -57 83
-89 162 -144 354 -73 256 -102 318 -207 457 -43 56 -53 75 -36 66 122 -64 296
-229 394 -374 117 -172 181 -313 254 -554 71 -237 116 -325 218 -423 45 -43
56 -59 40 -55 -13 4 -90 20 -171 37 -223 46 -283 74 -377 177 -65 71 -118 168
-195 358 -83 203 -135 307 -210 420 -175 261 -383 450 -630 571 l-109 54 180
0 c170 0 185 -2 271 -28z m553 -19 c283 -113 508 -333 719 -703 39 -68 119
-219 178 -335 58 -115 125 -240 148 -276 59 -91 166 -202 238 -246 l59 -37
-28 -8 c-40 -11 -384 9 -461 27 -210 49 -314 185 -423 555 -74 251 -137 377
-275 555 -152 195 -340 353 -560 471 l-80 43 200 -6 c197 -6 201 -7 285 -40z
m269 6 c212 -14 288 -40 428 -151 121 -96 215 -222 418 -563 79 -132 171 -277
204 -322 174 -232 384 -400 610 -486 l84 -32 -49 -22 c-67 -30 -154 -45 -154
-27 0 17 9 17 -102 -2 -167 -29 -311 -5 -428 73 -133 88 -220 213 -395 568
-125 253 -231 427 -343 566 -130 162 -311 306 -468 374 -41 18 -77 35 -79 37
-5 5 43 2 274 -13z m-1806 -8 c148 -51 273 -143 349 -254 23 -33 65 -113 93
-178 52 -117 98 -193 131 -220 14 -11 13 -6 -5 21 -12 19 -38 69 -58 110 -108
231 -133 279 -166 318 -51 60 -120 115 -197 157 -56 31 -60 35 -30 30 222 -39
455 -201 674 -470 110 -135 183 -238 311 -440 152 -242 187 -288 292 -394 l94
-93 -78 7 c-290 26 -513 125 -720 318 -127 120 -225 254 -372 515 -51 89 -95
162 -98 162 -2 0 6 -19 20 -42 13 -24 55 -99 92 -168 119 -217 188 -314 319
-445 132 -132 254 -221 392 -287 68 -33 83 -43 68 -49 -27 -11 -98 -11 -109 0
-6 5 -98 34 -205 64 -222 63 -313 95 -305 107 3 5 -14 14 -37 20 -68 16 -106
40 -184 113 -81 75 -154 177 -208 290 -19 39 -70 147 -114 239 -131 273 -247
420 -387 489 -68 33 -164 51 -216 40 -32 -7 -31 -8 23 -14 79 -10 161 -42 240
-94 126 -83 203 -192 350 -493 150 -309 212 -402 324 -492 35 -28 62 -53 60
-55 -9 -9 -108 22 -171 54 -197 99 -306 214 -500 524 -136 216 -174 266 -258
345 -81 76 -169 128 -251 150 -55 15 -146 17 -186 4 -20 -6 -15 -8 25 -9 124
-3 260 -57 368 -146 86 -71 159 -162 312 -390 143 -212 219 -310 296 -379 28
-25 47 -46 42 -46 -5 0 -62 15 -127 34 -192 56 -276 130 -368 326 -104 220
-128 267 -163 313 -19 25 -45 52 -57 58 -25 13 -23 10 44 -78 59 -78 72 -105
132 -257 52 -131 81 -182 135 -240 l36 -39 -50 28 c-117 65 -194 132 -435 374
-274 276 -321 312 -454 353 -54 16 -85 20 -146 15 -113 -7 -126 -22 -22 -24
63 -1 110 -9 168 -27 140 -45 212 -100 474 -366 129 -131 248 -246 263 -255
49 -31 22 -27 -79 10 -224 83 -419 199 -674 399 -153 120 -238 169 -341 195
l-71 18 148 41 c318 89 647 149 1064 197 181 20 209 19 296 -10 85 -28 133
-57 219 -127 l60 -50 -64 61 c-64 61 -184 131 -225 131 -17 0 -18 2 -6 10 27
17 162 12 223 -9z m2247 -16 c127 -11 255 -41 322 -77 83 -43 209 -169 285
-283 33 -49 104 -166 158 -260 54 -93 120 -204 148 -245 52 -78 205 -240 227
-240 7 0 -23 37 -66 83 -102 108 -168 200 -313 441 -216 356 -303 454 -473
537 l-63 31 73 -7 c253 -22 478 -157 743 -446 52 -57 151 -169 219 -249 291
-340 453 -477 705 -595 93 -44 271 -105 305 -105 10 0 21 -4 24 -8 8 -13 -179
-78 -274 -97 -121 -23 -297 -30 -378 -16 -37 6 -123 21 -192 32 -274 46 -441
125 -613 288 -165 158 -243 265 -468 638 -220 363 -308 467 -480 563 l-54 31
45 -5 c25 -3 79 -8 120 -11z m789 -50 c134 -8 247 -18 250 -23 3 -5 44 -20 91
-35 243 -75 435 -204 815 -547 351 -317 468 -406 666 -505 113 -57 266 -114
363 -136 l60 -13 -34 -14 c-19 -8 -67 -20 -106 -28 -65 -12 -86 -11 -206 6
-151 22 -231 46 -330 95 -72 36 -89 32 -35 -8 51 -39 129 -75 219 -101 74 -22
79 -25 43 -26 -22 0 -57 -3 -77 -6 -30 -5 -38 -3 -38 8 0 13 -6 14 -40 5 -84
-23 -322 34 -484 115 -222 111 -386 254 -696 603 -339 382 -510 525 -715 601
-56 21 -58 23 -25 23 19 1 145 -6 279 -14z m691 -31 c135 -3 254 -9 265 -14
11 -4 59 -20 108 -34 211 -64 353 -163 703 -492 220 -207 301 -276 414 -351
97 -65 260 -147 380 -190 100 -37 286 -83 333 -83 49 0 19 -18 -51 -30 -108
-20 -552 -8 -667 18 -181 40 -340 112 -540 247 -149 100 -263 192 -483 392
-374 339 -518 438 -756 519 l-101 35 75 -5 c41 -3 185 -8 320 -12z m1259 0 c2
-2 -43 -4 -102 -4 -58 0 -108 4 -111 9 -5 8 204 3 213 -5z m-449 -19 c111 -6
211 -45 335 -128 33 -23 158 -136 277 -253 119 -117 227 -218 240 -225 26 -13
39 -29 -151 181 -192 211 -319 321 -445 382 l-80 38 46 0 c62 0 214 -51 318
-106 128 -69 228 -138 472 -330 266 -209 357 -271 504 -345 127 -64 375 -149
512 -175 50 -10 92 -22 92 -27 0 -14 -87 -48 -209 -80 -110 -29 -126 -30 -316
-31 -222 -1 -331 15 -504 76 -290 101 -509 245 -817 539 -83 80 -180 170 -215
200 -148 130 -312 229 -454 275 l-70 22 195 -4 c107 -2 229 -6 270 -9z m970
-41 c228 -68 376 -131 830 -359 373 -186 489 -238 632 -280 95 -29 226 -55
274 -55 19 0 34 -4 34 -10 0 -12 -98 -79 -167 -113 -198 -101 -489 -101 -792
-1 -257 84 -453 197 -741 425 -346 275 -430 328 -655 418 -11 4 97 6 240 4
242 -4 266 -6 345 -29z m565 1 c537 -19 563 -26 1047 -267 174 -88 350 -170
390 -184 86 -29 220 -54 292 -54 l51 0 -45 -31 c-82 -55 -114 -66 -253 -89
-115 -19 -163 -22 -285 -17 -277 9 -453 76 -1107 421 -192 102 -389 185 -504
214 -88 23 -96 30 -28 25 28 -2 228 -10 442 -18z m1024 -29 c9 -7 55 -10 125
-9 61 1 115 -2 121 -7 5 -4 49 -15 96 -24 99 -19 168 -41 374 -123 187 -75
233 -90 343 -112 l87 -18 -95 -46 c-203 -99 -457 -103 -679 -12 -35 14 -162
75 -282 136 -243 121 -353 169 -479 209 l-85 27 230 -5 c148 -3 235 -9 244
-16z m-8659 -148 c76 -36 156 -92 335 -238 137 -112 270 -199 393 -258 85 -41
99 -51 80 -56 -47 -12 -91 -5 -177 28 -100 39 -145 65 -245 143 -73 57 -93 66
-75 32 20 -38 94 -104 155 -137 53 -29 55 -32 24 -26 -62 11 -184 63 -259 109
-85 52 -147 101 -246 195 -146 137 -202 172 -311 191 -38 7 -62 14 -54 17 8 3
38 14 65 24 39 15 70 18 145 15 83 -3 104 -8 170 -39z m-269 -54 c66 -23 122
-66 259 -199 181 -175 253 -223 405 -266 75 -22 50 -24 -47 -4 -174 36 -378
113 -551 207 -235 128 -356 178 -436 178 -34 1 -35 1 -16 15 25 19 77 35 140
41 43 5 60 0 122 -30 40 -19 99 -53 130 -74 84 -56 91 -59 58 -22 -44 48 -127
99 -214 130 -44 17 -70 31 -61 34 47 17 148 13 211 -10z"/>
<path d="M3275 2970 c10 -11 20 -20 23 -20 3 0 -3 9 -13 20 -10 11 -20 20 -23
20 -3 0 3 -9 13 -20z"/>
<path d="M3330 2896 c0 -2 8 -10 18 -17 15 -13 16 -12 3 4 -13 16 -21 21 -21
13z"/>
<path d="M3369 2845 c5 -11 17 -29 26 -40 l16 -20 -10 20 c-5 11 -17 29 -26
40 l-16 20 10 -20z"/>

</svg>
